<?xml version="1.0" encoding="UTF-8" standalone="no"?>
<svg
   xmlns:dc="http://purl.org/dc/elements/1.1/"
   xmlns:cc="http://creativecommons.org/ns#"
   xmlns:rdf="http://www.w3.org/1999/02/22-rdf-syntax-ns#"
   xmlns:svg="http://www.w3.org/2000/svg"
   xmlns="http://www.w3.org/2000/svg"
   xmlns:xlink="http://www.w3.org/1999/xlink"
   height="32.733978"
   width="26.683924"
   id="svg2522"
   version="1.1"
   viewBox="0 0 26.683923 32.733979"><metadata
   id="metadata2528">
  <rdf:RDF>
    <cc:Work
       rdf:about="">
      <dc:format>image/svg+xml</dc:format>
      <dc:type
         rdf:resource="http://purl.org/dc/dcmitype/StillImage" />
      <dc:title></dc:title>
    </cc:Work>
  </rdf:RDF>
</metadata>
<defs
   id="defs2526">
  <style
     id="style3263">.cls-1{fill:url(#linear-gradient);}.cls-2{fill:url(#linear-gradient-2);}.cls-3{fill:url(#linear-gradient-3);}.cls-4{fill:url(#linear-gradient-4);}.cls-5{fill:url(#linear-gradient-5);}.cls-6{fill:url(#linear-gradient-8);}.cls-7{fill:url(#linear-gradient-11);}.cls-8{fill:url(#linear-gradient-13);}.cls-9{opacity:0.3;}.cls-10{fill:url(#linear-gradient-14);}.cls-11{fill:url(#linear-gradient-15);}.cls-12{fill:url(#linear-gradient-16);}.cls-13{fill:url(#linear-gradient-17);}.cls-14{fill:#ff1d25;}.cls-15{fill:url(#linear-gradient-18);}.cls-16{fill:url(#linear-gradient-19);}.cls-17{fill:url(#linear-gradient-20);}</style>
  <linearGradient
     id="linear-gradient"
     x1="2.9400001"
     y1="325.95001"
     x2="474.47"
     y2="325.95001"
     gradientUnits="userSpaceOnUse">
    <stop
       offset="0"
       stop-color="#f2ad6c"
       id="stop3265" />
    <stop
       offset="1"
       stop-color="#fff"
       id="stop3267" />
  </linearGradient>
  <linearGradient
     gradientTransform="matrix(0.33490366,0,0,0.33490366,-4.8179577,-60.655486)"
     id="linear-gradient-2"
     x1="2.9400001"
     y1="324.48001"
     x2="474.47"
     y2="324.48001"
     xlink:href="#linear-gradient" />
  <linearGradient
     gradientTransform="matrix(0.33490366,0,0,0.33490366,-4.8179577,-60.655486)"
     id="linear-gradient-3"
     x1="2.9400001"
     y1="323.45999"
     x2="474.47"
     y2="323.45999"
     xlink:href="#linear-gradient" />
  <linearGradient
     gradientTransform="matrix(0.33490366,0,0,0.33490366,-4.8179577,-60.655486)"
     id="linear-gradient-4"
     x1="2.9400001"
     y1="324.76001"
     x2="474.47"
     y2="324.76001"
     xlink:href="#linear-gradient" />
  <linearGradient
     gradientTransform="matrix(0.33490366,0,0,0.33490366,-4.8179577,-60.655486)"
     id="linear-gradient-5"
     x1="2.9400001"
     y1="330.82001"
     x2="474.47"
     y2="330.82001"
     xlink:href="#linear-gradient" />
  <linearGradient
     gradientTransform="matrix(0.33490366,0,0,0.33490366,-4.8179577,-60.655486)"
     id="linear-gradient-8"
     x1="2.9400001"
     y1="330.29001"
     x2="474.47"
     y2="330.29001"
     xlink:href="#linear-gradient" />
  <linearGradient
     gradientTransform="matrix(0.33490366,0,0,0.33490366,-4.8179577,-60.655486)"
     id="linear-gradient-11"
     x1="2.9400001"
     y1="330.75"
     x2="474.47"
     y2="330.75"
     xlink:href="#linear-gradient" />
  <linearGradient
     id="linear-gradient-13"
     x1="4467.3599"
     y1="-5319.48"
     x2="4467.7002"
     y2="-5319.48"
     gradientTransform="matrix(83.96,0,0,-88.1,-374765.07,-468562.65)"
     xlink:href="#linear-gradient" />
  <linearGradient
     gradientTransform="translate(-492.3483,-159.7763)"
     id="linear-gradient-14"
     x1="341.45001"
     y1="96.059998"
     x2="345.20001"
     y2="96.059998"
     xlink:href="#linear-gradient" />
  <linearGradient
     gradientTransform="translate(-492.3483,-159.7763)"
     id="linear-gradient-15"
     x1="267.95999"
     y1="89.129997"
     x2="273.04999"
     y2="89.129997"
     xlink:href="#linear-gradient" />
  <linearGradient
     gradientTransform="translate(-492.3483,-159.7763)"
     id="linear-gradient-16"
     x1="332.37"
     y1="86.800003"
     x2="341.76999"
     y2="86.800003"
     xlink:href="#linear-gradient" />
  <linearGradient
     gradientTransform="translate(-492.3483,-159.7763)"
     id="linear-gradient-17"
     x1="207.72"
     y1="72.440002"
     x2="343.39001"
     y2="72.440002"
     xlink:href="#linear-gradient" />
  <linearGradient
     gradientTransform="translate(-492.3483,-159.7763)"
     id="linear-gradient-18"
     x1="272.57999"
     y1="79.790001"
     x2="285.09"
     y2="79.790001"
     xlink:href="#linear-gradient" />
  <linearGradient
     gradientTransform="translate(-492.3483,-159.7763)"
     id="linear-gradient-19"
     x1="133.17999"
     y1="186.27"
     x2="339.51001"
     y2="186.27"
     xlink:href="#linear-gradient" />
  <linearGradient
     gradientTransform="translate(-492.3483,-159.7763)"
     id="linear-gradient-20"
     x1="212.61"
     y1="186.42"
     x2="212.67"
     y2="186.42"
     xlink:href="#linear-gradient" />
  <linearGradient
     gradientTransform="translate(-492.3483,-159.7763)"
     y2="186.42"
     x2="212.67"
     y1="186.42"
     x1="212.61"
     id="linearGradient3441"
     xlink:href="#linear-gradient" />
  <linearGradient
     gradientTransform="translate(-492.3483,-159.7763)"
     y2="186.42"
     x2="212.67"
     y1="186.42"
     x1="212.61"
     id="linearGradient3443"
     xlink:href="#linear-gradient" />
  <linearGradient
     gradientTransform="translate(-492.3483,-159.7763)"
     y2="186.42"
     x2="212.67"
     y1="186.42"
     x1="212.61"
     id="linearGradient3445"
     xlink:href="#linear-gradient" />
  <linearGradient
     gradientTransform="translate(-492.3483,-159.7763)"
     y2="186.42"
     x2="212.67"
     y1="186.42"
     x1="212.61"
     id="linearGradient3447"
     xlink:href="#linear-gradient" />
  <linearGradient
     gradientTransform="translate(-492.3483,-159.7763)"
     y2="186.42"
     x2="212.67"
     y1="186.42"
     x1="212.61"
     id="linearGradient3449"
     xlink:href="#linear-gradient" />
</defs>
{textColor}
      /&gt;
      {textColor}
      /&gt;
      {textColor}
      /&gt;
      {textColor}
      /&gt;
      {textColor}
      /&gt;
      {textColor}
      /&gt;
      {textColor}
      /&gt;
      {textColor}
      /&gt;
      {textColor}
      /&gt;
      {textColor}
      /&gt;
      path
        d=&quot;M150.28 23.6447C149.908 23.6447 149.645 23.5678 149.491 23.4138C149.35 23.2598 149.279 23.016 149.279 22.6824V11.654C149.857 11.2434 150.582 10.9034 151.454 10.6339C152.327 10.3645 153.238 10.2297 154.187 10.2297C158.062 10.2297 160 11.8721 160 15.1569C160 16.6453 159.589 17.8322 158.768 18.7176C157.947 19.6029 156.786 20.0456 155.284 20.0456C154.861 20.0456 154.45 19.9943 154.053 19.8916C153.668 19.789 153.347 19.6478 153.09 19.4682V22.6824C153.09 23.016 153.013 23.2598 152.859 23.4138C152.705 23.5678 152.442 23.6447 152.07 23.6447H150.28ZM154.457 17.4473C155.009 17.4473 155.419 17.242 155.689 16.8314C155.971 16.408 156.112 15.8434 156.112 15.1377C156.112 14.3036 155.945 13.7198 155.612 13.3862C155.291 13.0398 154.79 12.8665 154.11 12.8665C153.674 12.8665 153.328 12.9243 153.071 13.0398V16.1C153.071 16.5363 153.193 16.8699 153.437 17.1008C153.681 17.3318 154.021 17.4473 154.457 17.4473Z&quot;
        fill={textColor}
      /&gt;
      <g
   transform="matrix(0.12586143,0,0,0.12586143,45.204206,20.109674)"
   id="g3557">
  <g
     data-name="Group 9"
     id="Group_9"
     transform="translate(-492.3483,-159.7763)">
    <path
       d="m 311.54,21.65 -0.09,-0.12 0.11,0.21 c 0,0 -0.02,-0.05 -0.02,-0.09 z m 17.68,78.6 v 0 a 0.44,0.44 0 0 0 0,-0.1 0.09,0.09 0 0 1 0,0.1 z m 0.5,1.76 a 1.9,1.9 0 0 0 0.09,0.29 2.76,2.76 0 0 0 -0.09,-0.3 z m 11.06,17.55 v 0 a 2.75,2.75 0 0 0 0.15,-0.36 c -0.04,0.12 -0.09,0.24 -0.15,0.36 z m -17.91,18.62 a 38,38 0 0 0 4.07,-2.31 q -1.94,1.24 -4.07,2.31 z"
       class="cls-8"
       data-name="Path 12"
       id="Path_12"
       style="fill:url(#linear-gradient-13)" />
  </g>
  <g
     id="g3314"
     class="cls-9"
     style="opacity:0.3"
     transform="translate(-492.3483,-159.7763)">
    <path
       id="path3312"
       d="m 329.22,100.25 v 0 a 0.44,0.44 0 0 0 0,-0.1 0.09,0.09 0 0 1 0,0.1 z" />
  </g>
  <g
     id="g3318"
     class="cls-9"
     style="opacity:0.3"
     transform="translate(-492.3483,-159.7763)">
    <path
       id="path3316"
       d="m 268.25,91.39 z m 0,0 z m 0,0 z M 286.47,73.3 c 0,-0.13 -0.09,-0.25 -0.13,-0.36 -0.04,-0.11 0,0 0,0 0,0 0.1,0.24 0.14,0.36 l 0.06,0.14 c 0,0 -0.05,-0.09 -0.07,-0.14 z m -18.22,18.09 z m 0,0 z m 0,0 z" />
  </g>
  <path
     id="path3320"
     d="m -151.4083,-40.5763 a 2.75,2.75 0 0 1 -0.15,0.36 v 0 c 0.05,-0.12 0.1,-0.24 0.15,-0.36 z" />
  <path
     id="path3322"
     d="m -162.6283,-57.7763 a 1.9,1.9 0 0 0 0.09,0.29 2.76,2.76 0 0 0 -0.09,-0.29 z m -0.5,-1.76 v 0 a 0.44,0.44 0 0 0 0,-0.1 0.09,0.09 0 0 1 0,0.11 z" />
  <path
     id="path3324"
     d="M -253.0383,25.9337 Z" />
  <path
     id="path3326"
     d="m -163.0983,-59.5863 a 0.44,0.44 0 0 1 0,0.1 v 0 a 0.09,0.09 0 0 0 0,-0.1 z" />
  <path
     id="path3328"
     d="m -180.7883,-138.0363 -0.11,-0.21 0.09,0.12 c 0,0 0.02,0.06 0.02,0.09 z" />
  <path
     id="path3330"
     d="M -224.0983,-68.3863 Z" />
  <path
     id="path3332"
     d="m -162.6283,-57.7763 a 1.9,1.9 0 0 0 0.09,0.29 2.76,2.76 0 0 0 -0.09,-0.29 z" />
  <path
     id="path3334"
     d="m -150.4883,-66.4363 c 0,0 0,0 0,0 a 0.86,0.86 0 0 1 0.06,-0.23 1.72,1.72 0 0 0 -0.06,0.23 z" />
  <path
     id="path3336"
     d="m -147.1483,-63.7263 a 7.73,7.73 0 0 1 -0.07,1.08 2.9,2.9 0 0 1 -0.06,0.41 3.44,3.44 0 0 1 -0.7,2 1.49,1.49 0 0 1 -1,0.43 1.48,1.48 0 0 1 -1.14,-0.43 2.89,2.89 0 0 1 -0.61,-1.5 10.78,10.78 0 0 1 -0.21,-2 c 0,-0.34 0,-0.68 0.05,-1 0,-0.15 0,-0.28 0.06,-0.42 a 5.09,5.09 0 0 1 0.5,-1.76 1.49,1.49 0 0 1 1.93,-0.54 1.38,1.38 0 0 1 0.62,0.6 4.77,4.77 0 0 1 0.44,1.48 9,9 0 0 1 0.19,1.65 z"
     class="cls-10"
     style="fill:url(#linear-gradient-14)" />
  <path
     id="path3338"
     d="m -219.2983,-70.6563 a 9.26,9.26 0 0 1 -0.12,1.49 5.69,5.69 0 0 1 -0.38,1.43 2,2 0 0 1 -0.44,0.6 1.49,1.49 0 0 1 -0.27,0.23 2.1,2.1 0 0 1 -0.67,0.33 2.29,2.29 0 0 1 -2,-0.34 2.63,2.63 0 0 1 -0.92,-1.49 9,9 0 0 1 -0.28,-2.25 c 0,-1.29 0.09,-2.91 1.23,-3.74 a 2.22,2.22 0 0 1 1.32,-0.43 2.33,2.33 0 0 1 1.34,0.44 2.42,2.42 0 0 1 0.91,1.46 7.94,7.94 0 0 1 0.2,1 c 0,0.23 0.06,0.46 0.07,0.69 0.01,0.23 0.01,0.38 0.01,0.58 z"
     class="cls-11"
     style="fill:url(#linear-gradient-15)" />
  <path
     id="path3340"
     d="m -150.5783,-72.9563 a 14.5,14.5 0 0 1 -2.3,7.78 3.46,3.46 0 0 1 -2.24,1.77 2.52,2.52 0 0 1 -2,-0.71 4.63,4.63 0 0 1 -1.16,-1.73 c -0.22,-0.57 -0.5,-1.1 -0.73,-1.67 a 16.56,16.56 0 0 1 -0.58,-1.81 15.58,15.58 0 0 1 -0.44,-3.79 14.8,14.8 0 0 1 2,-7.29 5.24,5.24 0 0 1 1.39,-1.67 2.29,2.29 0 0 1 2.07,-0.38 3.23,3.23 0 0 1 1.4,1.27 14.54,14.54 0 0 1 2.57,8 c 0.01,0.05 0.02,0.14 0.02,0.23 z"
     class="cls-12"
     style="fill:url(#linear-gradient-16)" />
  <path
     id="path3342"
     d="m -149.0483,-47.3563 a 14,14 0 0 1 -5.64,-1.18 14.18,14.18 0 0 1 -3.55,-2.26 13.86,13.86 0 0 1 -2.37,-2.64 l -0.26,-0.38 a 23.27,23.27 0 0 1 -2.72,-7.78 37.1,37.1 0 0 1 0.93,-17.79 c 0.05,-0.18 0.1,-0.35 0.16,-0.52 a 0.19,0.19 0 0 0 0,-0.08 14.41,14.41 0 0 1 3.71,-6 14.18,14.18 0 0 1 6.09,-3.44 l 0.31,-0.08 0.37,-0.09 -0.15,-0.34 q -1,-2.07 -2.07,-4 c -0.06,-0.12 -0.13,-0.22 -0.2,-0.34 a 8.94,8.94 0 0 1 -1,-1.74 c -0.2,-0.68 -0.31,-1.39 -0.54,-2.06 a 0.2,0.2 0 0 0 0,-0.07 16.25,16.25 0 0 1 -0.37,-1.68 c -0.27,-1.76 -0.58,-3.52 -0.94,-5.25 a 97.59,97.59 0 0 0 -29.06,-51.77 c -1,-0.9 -1.95,-1.79 -3,-2.65 l -0.27,-0.28 c 0,0.14 -0.05,0.28 -0.07,0.43 -0.35,2.3 -0.67,4.6 -0.88,6.91 -0.21,2.31 -0.33,4.69 -0.38,7 0,0.59 0,1.17 0,1.76 a 98.1,98.1 0 0 0 2.41,21.6 60.49,60.49 0 0 0 -40.74,1.38 c -0.29,-0.31 -0.57,-0.62 -0.87,-0.92 a 2.26,2.26 0 0 0 -0.26,-0.29 93.28,93.28 0 0 0 -14.78,-12.86 97.6,97.6 0 0 0 -33.16,-15.11 v 0 c -1.22,-0.3 -2.45,-0.57 -3.69,-0.83 l -0.4,-0.07 c 0,0.12 0,0.24 -0.07,0.36 -0.63,3 -1.12,6 -1.47,9 a 97.58,97.58 0 0 0 15.63,65.2 101,101 0 0 0 12.46,15.21 60.08,60.08 0 0 0 6.72,16.44 61,61 0 0 0 30,25.51 59.56,59.56 0 0 0 21,4.16 61.49,61.49 0 0 0 21.46,-3.53 47.53,47.53 0 0 0 16.36,-9.43 40.66,40.66 0 0 0 10.28,-16 c 0.29,-0.81 0.58,-1.63 0.82,-2.46 0.06,-0.2 0.13,-0.41 0.19,-0.62 l 0.11,-0.37 z m -99.15,-59.73 a 38,38 0 0 0 -3.15,4.87 37.13,37.13 0 0 0 -2.75,6.44 q -0.53,1.44 -1,2.94 c -0.39,1.29 -0.74,2.6 -1.05,3.92 a 60.69,60.69 0 0 0 -1.32,8.69 l -0.63,-1 v 0 a 4.43,4.43 0 0 1 -0.29,-0.46 q -2,-3.25 -3.78,-6.69 l -0.18,-0.4 a 98.77,98.77 0 0 1 -5,-11.51 c 0,-0.14 -0.1,-0.27 -0.14,-0.41 a 96.61,96.61 0 0 1 -5.41,-32 c 0,-0.47 0,-0.94 0,-1.41 a 97.67,97.67 0 0 1 28,16.63 v 0 c 0,0 0,0 0,0 0.79,0.67 1.57,1.35 2.34,2.06 a 1.57,1.57 0 0 1 0.27,0.25 c 0.32,0.28 0.65,0.57 1,0.87 l 0.1,0.09 -0.52,0.4 c -0.74,0.6 -1.47,1.22 -2.16,1.87 l -0.32,0.29 -0.43,0.42 a 37.89,37.89 0 0 0 -3.58,4.14 z m 43.85,39.22 a 35.58,35.58 0 0 1 -1.23,5 c -0.06,0.2 -0.12,0.4 -0.2,0.6 a 14,14 0 0 1 -5,6.63 l -0.34,0.24 a 13.84,13.84 0 0 1 -4.84,2.07 l -0.54,0.1 a 13.93,13.93 0 0 1 -2.44,0.22 13.77,13.77 0 0 1 -3.87,-0.56 2.36,2.36 0 0 1 -0.38,-0.1 14,14 0 0 1 -6.27,-4.1 18.79,18.79 0 0 1 -3.89,-8.85 c -1.24,-6 -1.26,-12.83 0.8,-18.67 a 15.72,15.72 0 0 1 5.06,-7.34 l 0.31,-0.24 a 14.16,14.16 0 0 1 8.24,-2.67 c 6.78,0 11.79,4.73 13.73,11 a 27.09,27.09 0 0 1 0.68,2.65 37.31,37.31 0 0 1 0.8,7.67 36.73,36.73 0 0 1 -0.62,6.35 z m 23.89,25.27 v 0 a 3.21,3.21 0 0 1 -1.9,2.31 3.07,3.07 0 0 1 -1.25,0.25 3.2,3.2 0 1 1 3.15,-2.58 z m 14,-66.74 a 60,60 0 0 0 -6.41,-5 q -1.85,-1.26 -3.77,-2.38 c 0,-0.27 -0.05,-0.53 -0.07,-0.8 -0.26,-3 -0.66,-6 -1.19,-9 l -0.09,-0.43 c -0.35,-2 -0.78,-3.9 -1.26,-5.82 0,-0.14 -0.07,-0.29 -0.11,-0.43 q -0.62,-2.41 -1.35,-4.78 l -0.11,-0.21 0.09,0.12 q 2.11,2.82 4,5.79 l 0.32,0.51 c 1.52,2.38 2.93,4.84 4.23,7.36 0.1,0.19 0.2,0.37 0.29,0.56 a 96.92,96.92 0 0 1 6.24,15.33 c -0.32,-0.32 -0.6,-0.58 -0.88,-0.82 z"
     class="cls-13"
     style="fill:url(#linear-gradient-17)" />
  <path
     id="path3344"
     d="m -150.4883,-66.4363 c 0,0 0,0 0,0 a 0.86,0.86 0 0 1 0.06,-0.23 1.72,1.72 0 0 0 -0.06,0.23 z m 0,0 c 0,0 0,0 0,0 a 0.86,0.86 0 0 1 0.06,-0.23 1.72,1.72 0 0 0 -0.06,0.23 z m 0,0 c 0,0 0,0 0,0 a 0.86,0.86 0 0 1 0.06,-0.23 1.72,1.72 0 0 0 -0.06,0.23 z m 0,0 c 0,0 0,0 0,0 a 0.86,0.86 0 0 1 0.06,-0.23 1.72,1.72 0 0 0 -0.06,0.23 z m 0,0 c 0,0 0,0 0,0 a 0.86,0.86 0 0 1 0.06,-0.23 1.72,1.72 0 0 0 -0.06,0.23 z m 0,0 c 0,0 0,0 0,0 a 0.86,0.86 0 0 1 0.06,-0.23 1.72,1.72 0 0 0 -0.06,0.23 z m 0,0 c 0,0 0,0 0,0 a 0.86,0.86 0 0 1 0.06,-0.23 1.72,1.72 0 0 0 -0.06,0.23 z m 0,0 c 0,0 0,0 0,0 a 0.86,0.86 0 0 1 0.06,-0.23 1.72,1.72 0 0 0 -0.06,0.23 z m 0,0 c 0,0 0,0 0,0 a 0.86,0.86 0 0 1 0.06,-0.23 1.72,1.72 0 0 0 -0.06,0.23 z m 0,0 c 0,0 0,0 0,0 a 0.86,0.86 0 0 1 0.06,-0.23 1.72,1.72 0 0 0 -0.06,0.23 z m 0,0 c 0,0 0,0 0,0 a 0.86,0.86 0 0 1 0.06,-0.23 1.72,1.72 0 0 0 -0.06,0.23 z m 0,0 c 0,0 0,0 0,0 a 0.86,0.86 0 0 1 0.06,-0.23 1.72,1.72 0 0 0 -0.06,0.23 z m 0,0 c 0,0 0,0 0,0 a 0.86,0.86 0 0 1 0.06,-0.23 1.72,1.72 0 0 0 -0.06,0.23 z m 0,0 c 0,0 0,0 0,0 a 0.86,0.86 0 0 1 0.06,-0.23 1.72,1.72 0 0 0 -0.06,0.23 z m 0,0 c 0,0 0,0 0,0 a 0.86,0.86 0 0 1 0.06,-0.23 1.72,1.72 0 0 0 -0.06,0.23 z m 0,0 c 0,0 0,0 0,0 a 0.86,0.86 0 0 1 0.06,-0.23 1.72,1.72 0 0 0 -0.06,0.23 z m 0,0 c 0,0 0,0 0,0 a 0.86,0.86 0 0 1 0.06,-0.23 1.72,1.72 0 0 0 -0.06,0.23 z m 0,0 c 0,0 0,0 0,0 a 0.86,0.86 0 0 1 0.06,-0.23 1.72,1.72 0 0 0 -0.06,0.23 z m 0,0 c 0,0 0,0 0,0 a 0.86,0.86 0 0 1 0.06,-0.23 1.72,1.72 0 0 0 -0.06,0.23 z m 0,0 c 0,0 0,0 0,0 a 0.86,0.86 0 0 1 0.06,-0.23 1.72,1.72 0 0 0 -0.06,0.23 z m 0,0 c 0,0 0,0 0,0 a 0.86,0.86 0 0 1 0.06,-0.23 1.72,1.72 0 0 0 -0.06,0.23 z m -19,44.84 a 38,38 0 0 0 4.07,-2.31 q -1.93,1.24 -4.06,2.31 z m 17.91,-18.62 v 0 a 2.75,2.75 0 0 0 0.15,-0.36 c -0.03,0.12 -0.08,0.24 -0.14,0.36 z m 1.08,-26.22 c 0,0 0,0 0,0 a 0.86,0.86 0 0 1 0.06,-0.23 1.72,1.72 0 0 0 -0.05,0.23 z m 0,0 c 0,0 0,0 0,0 a 0.86,0.86 0 0 1 0.06,-0.23 1.72,1.72 0 0 0 -0.05,0.23 z m 0,0 c 0,0 0,0 0,0 a 0.86,0.86 0 0 1 0.06,-0.23 1.72,1.72 0 0 0 -0.05,0.23 z m 0,0 c 0,0 0,0 0,0 a 0.86,0.86 0 0 1 0.06,-0.23 1.72,1.72 0 0 0 -0.05,0.23 z m 0,0 c 0,0 0,0 0,0 a 0.86,0.86 0 0 1 0.06,-0.23 1.72,1.72 0 0 0 -0.05,0.23 z m 0,0 c 0,0 0,0 0,0 a 0.86,0.86 0 0 1 0.06,-0.23 1.72,1.72 0 0 0 -0.05,0.23 z m 0,0 c 0,0 0,0 0,0 a 0.86,0.86 0 0 1 0.06,-0.23 1.72,1.72 0 0 0 -0.05,0.23 z m 0,0 c 0,0 0,0 0,0 a 0.86,0.86 0 0 1 0.06,-0.23 1.72,1.72 0 0 0 -0.05,0.23 z m 0,0 c 0,0 0,0 0,0 a 0.86,0.86 0 0 1 0.06,-0.23 1.72,1.72 0 0 0 -0.05,0.23 z m 0,0 c 0,0 0,0 0,0 a 0.86,0.86 0 0 1 0.06,-0.23 1.72,1.72 0 0 0 -0.05,0.23 z m 0,0 c 0,0 0,0 0,0 a 0.86,0.86 0 0 1 0.06,-0.23 1.72,1.72 0 0 0 -0.05,0.23 z m -55.52,-20.4 c 0,0 0,0 0,0 0,0 0.1,0.24 0.14,0.36 -0.04,-0.13 -0.09,-0.25 -0.13,-0.36 z m 55.52,20.4 c 0,0 0,0 0,0 a 0.86,0.86 0 0 1 0.06,-0.23 1.72,1.72 0 0 0 -0.05,0.23 z m 0,0 c 0,0 0,0 0,0 a 0.86,0.86 0 0 1 0.06,-0.23 1.72,1.72 0 0 0 -0.05,0.23 z m 0,0 c 0,0 0,0 0,0 a 0.86,0.86 0 0 1 0.06,-0.23 1.72,1.72 0 0 0 -0.05,0.23 z m 0,0 c 0,0 0,0 0,0 a 0.86,0.86 0 0 1 0.06,-0.23 1.72,1.72 0 0 0 -0.05,0.23 z m 0,0 c 0,0 0,0 0,0 a 0.86,0.86 0 0 1 0.06,-0.23 1.72,1.72 0 0 0 -0.05,0.23 z m 0,0 c 0,0 0,0 0,0 a 0.86,0.86 0 0 1 0.06,-0.23 1.72,1.72 0 0 0 -0.05,0.23 z m 0,0 c 0,0 0,0 0,0 a 0.86,0.86 0 0 1 0.06,-0.23 1.72,1.72 0 0 0 -0.05,0.23 z m 0,0 c 0,0 0,0 0,0 a 0.86,0.86 0 0 1 0.06,-0.23 1.72,1.72 0 0 0 -0.05,0.23 z m 0,0 c 0,0 0,0 0,0 a 0.86,0.86 0 0 1 0.06,-0.23 1.72,1.72 0 0 0 -0.05,0.23 z m 0,0 c 0,0 0,0 0,0 a 0.86,0.86 0 0 1 0.06,-0.23 1.72,1.72 0 0 0 -0.05,0.23 z"
     class="cls-14"
     style="fill:#ff1d25" />
  <path
     id="path3346"
     d="m -207.2583,-79.9863 a 14,14 0 0 1 -1.09,5.48 10.5,10.5 0 0 1 -3,4.49 3.62,3.62 0 0 1 -1,0.53 3.49,3.49 0 0 1 -2.3,0 6.68,6.68 0 0 1 -3.23,-3.41 14.86,14.86 0 0 1 -1.76,-5.31 c 0,-0.13 0,-0.26 -0.05,-0.41 0,-0.44 -0.06,-0.9 -0.06,-1.37 a 10.38,10.38 0 0 1 0.05,-1.12 c 0,-0.13 0,-0.25 0,-0.37 a 14.31,14.31 0 0 1 2,-6.07 c 0.88,-1.51 2.44,-3.17 4.33,-3.14 2.06,0 3.44,2.08 4.29,3.71 a 15.47,15.47 0 0 1 1.79,6.2 v 0 q 0.03,0.43 0.03,0.79 z"
     class="cls-15"
     style="fill:url(#linear-gradient-18)" />
  <path
     id="path3348"
     d="m -152.8583,-7.5063 a 1.47,1.47 0 0 1 -0.42,0.83 1.5,1.5 0 0 1 -1.72,0.27 1.17,1.17 0 0 1 -0.3,-0.19 l -0.14,-0.14 a 0.81,0.81 0 0 0 -0.12,-0.14 0.65,0.65 0 0 0 -0.52,-0.17 0.5,0.5 0 0 0 -0.24,0.09 0.64,0.64 0 0 0 -0.27,0.38 0.07,0.07 0 0 0 0,0.05 v 0 a 0.54,0.54 0 0 0 0,0.28 0.61,0.61 0 0 1 0.07,0.14 1,1 0 0 1 0,0.51 0.94,0.94 0 0 1 -0.26,0.56 1,1 0 0 1 -1.66,-0.44 c 0,0 0,-0.05 0,-0.07 a 0.62,0.62 0 0 0 -0.46,-0.41 1,1 0 0 0 -0.48,0.06 l -0.55,0.14 c -0.72,0.19 -1.43,0.39 -2.13,0.61 -0.18,0 -0.34,0.1 -0.5,0.15 a 58.28,58.28 0 0 0 -9.74,4.05 60.35,60.35 0 0 0 -26.2,26.78 l -0.7,1.45 c -1.26,2.74 -2.44,5.5 -2.44,8.56 a 13.83,13.83 0 0 0 0.75,4.52 c 0,0.13 0.09,0.26 0.14,0.39 0.05,0.13 0.05,0.11 0.07,0.17 a 1.83,1.83 0 0 0 0.14,0.32 0.57,0.57 0 0 0 0.24,0.19 0.66,0.66 0 0 0 0.2,0.06 h 0.05 a 0.57,0.57 0 0 0 0.38,-0.13 l 0.12,-0.11 0.2,-0.03 a 1.12,1.12 0 0 1 0.32,-0.12 1.52,1.52 0 0 1 0.38,-0.05 1.48,1.48 0 0 1 0.82,2.72 1.14,1.14 0 0 1 -0.56,0.22 0.62,0.62 0 0 0 -0.44,0.25 0.58,0.58 0 0 0 0.11,0.87 0.56,0.56 0 0 0 0.17,0.09 0.63,0.63 0 0 0 0.19,0 h 0.19 0.19 a 1.61,1.61 0 0 1 0.37,0.07 1.56,1.56 0 0 1 0.51,0.27 1.36,1.36 0 0 1 0.37,0.45 1.22,1.22 0 0 1 0.17,0.55 1.54,1.54 0 0 1 0,0.43 1.63,1.63 0 0 1 -0.18,0.46 0.75,0.75 0 0 1 -0.09,0.15 1.49,1.49 0 0 1 -1.2,0.6 1.36,1.36 0 0 1 -0.29,0 1.17,1.17 0 0 1 -0.2,-0.06 1.62,1.62 0 0 1 -0.35,-0.17 1.81,1.81 0 0 1 -0.21,-0.18 0.6,0.6 0 0 0 -0.55,-0.16 0.72,0.72 0 0 0 -0.28,0.13 1.19,1.19 0 0 0 -0.15,0.18 0.84,0.84 0 0 0 0,0.12 0.64,0.64 0 0 0 0.11,0.57 l 0.12,0.1 0.11,0.15 a 1.46,1.46 0 0 1 0.17,0.33 1.5,1.5 0 0 1 -1.39,2 1.63,1.63 0 0 1 -0.59,-0.12 1.5,1.5 0 0 1 -0.48,-0.34 1.43,1.43 0 0 1 -0.34,-0.51 1.49,1.49 0 0 1 -0.11,-0.54 0.41,0.41 0 0 1 0,-0.12 0.68,0.68 0 0 0 0,-0.14 0.61,0.61 0 0 0 -0.25,-0.49 0.62,0.62 0 0 0 -0.49,-0.12 0.71,0.71 0 0 0 -0.18,0.08 0.57,0.57 0 0 0 -0.22,0.19 0.51,0.51 0 0 0 -0.07,0.17 2,2 0 0 1 -0.09,0.41 0.92,0.92 0 0 1 -0.16,0.27 1.57,1.57 0 0 1 -0.24,0.21 1,1 0 0 1 -0.3,0.12 1.06,1.06 0 0 1 -0.5,0 1,1 0 0 1 -0.51,-0.36 1,1 0 0 1 -0.2,-0.58 c 0,-0.13 0,-0.24 0,-0.37 a 0.52,0.52 0 0 0 -0.1,-0.27 0.62,0.62 0 0 0 -0.39,-0.26 l -0.7,-0.19 a 9.86,9.86 0 0 1 -1,-0.33 14.48,14.48 0 0 1 -7.21,-6 c -0.14,-0.22 -0.27,-0.45 -0.39,-0.68 -0.12,-0.23 -0.25,-0.47 -0.36,-0.71 -0.11,-0.24 -0.12,-0.25 -0.17,-0.37 -0.05,-0.12 -0.1,-0.25 -0.14,-0.37 -0.04,-0.12 0,-0.1 -0.07,-0.15 a 1,1 0 0 0 -0.05,-0.12 14.07,14.07 0 0 0 -12.89,-8.46 c -3,0 -5.68,1.1 -8.35,2.3 a 60.13,60.13 0 0 0 -18.33,12.88 60.78,60.78 0 0 0 -11.6,16.8 69.29,69.29 0 0 0 -3,8.22 39.38,39.38 0 0 1 -11.64,18.56 37.39,37.39 0 0 1 -4.47,3.34 l -0.67,0.42 -0.67,0.4 a 39.37,39.37 0 0 1 -5.84,2.75 c -0.61,0.23 -1.22,0.44 -1.85,0.63 l -0.78,0.25 a 63.89,63.89 0 0 1 -15.21,2.63 53.57,53.57 0 0 1 -10.36,-0.44 58,58 0 0 1 -13.79,-3.45 38.38,38.38 0 0 1 -7.16,-3.81 c -0.34,-0.23 -0.68,-0.47 -1,-0.72 a 41.61,41.61 0 0 1 -4.46,-3.82 38.4,38.4 0 0 1 -4.33,-5.2 l -0.35,-0.51 a 37.19,37.19 0 0 1 -5.75,-14.57 c -0.05,-0.25 -0.09,-0.51 -0.13,-0.76 -0.07,-0.44 -0.13,-0.89 -0.17,-1.34 a 21.24,21.24 0 0 1 -0.11,-2.26 23.9,23.9 0 0 1 0.32,-3.88 23.27,23.27 0 0 1 8.79,-14.54 l 0.33,-0.25 c 0.57,-0.43 1.17,-0.82 1.78,-1.2 l 0.4,-0.24 a 23.2,23.2 0 0 1 5.25,-2.22 c 0.49,-0.14 1,-0.27 1.46,-0.37 a 13,13 0 0 1 1.5,-0.24 c 0.48,0 1,-0.07 1.43,-0.07 a 12.91,12.91 0 0 1 1.86,0.12 h 0.34 a 16.38,16.38 0 0 1 1.61,0.34 l 0.79,0.24 0.76,0.29 0.56,0.23 a 14.57,14.57 0 0 1 6.55,5.92 l 0.21,0.38 q 0.27,0.49 0.51,1 c 0.15,0.35 0.29,0.71 0.42,1.07 a 11.1,11.1 0 0 1 0.34,1.12 c 0.1,0.38 0.19,0.76 0.26,1.15 0,0.17 0.06,0.34 0.08,0.52 0.02,0.18 0,0.32 0.05,0.48 a 14.91,14.91 0 0 1 0.08,1.5 c 0,0.24 0,0.49 0,0.72 -0.2,6.38 4.67,12.21 10.76,13.67 a 14.35,14.35 0 0 0 13.44,-4 33.51,33.51 0 0 0 3.3,-4.54 100.42,100.42 0 0 1 15.53,-17.42 98,98 0 0 1 9.52,-7.46 109.67,109.67 0 0 1 11.58,-6.83 l 1.92,-0.93 1,-0.47 0.71,-0.32 0.29,-0.14 0.35,-0.15 1,-0.45 c 0.33,-0.13 0.66,-0.27 1,-0.43 a 14.28,14.28 0 0 0 -2.37,-0.65 14.07,14.07 0 0 0 -9.13,1.44 15.52,15.52 0 0 1 -7.51,2.1 14.28,14.28 0 0 1 -4.11,-0.6 l -0.54,-0.17 a 1.15,1.15 0 0 0 -0.48,-0.1 0.57,0.57 0 0 0 -0.34,0.18 1.28,1.28 0 0 0 -0.15,0.25 1.57,1.57 0 0 1 -0.19,0.26 1.15,1.15 0 0 1 -0.19,0.14 1.07,1.07 0 0 1 -0.82,0.09 1,1 0 0 1 -0.39,-0.24 1,1 0 0 1 -0.29,-0.57 1,1 0 0 1 0.09,-0.55 0.88,0.88 0 0 0 0.07,-0.14 0.6,0.6 0 0 0 0,-0.52 0.84,0.84 0 0 0 -0.21,-0.21 v 0 a 0.61,0.61 0 0 0 -0.73,0 c -0.08,0.05 -0.11,0.14 -0.16,0.21 a 0.86,0.86 0 0 1 -0.13,0.14 1.6,1.6 0 0 1 -0.3,0.23 1.49,1.49 0 0 1 -1.8,-2.34 1.6,1.6 0 0 1 0.51,-0.33 1.39,1.39 0 0 1 0.45,-0.09 0.6,0.6 0 0 0 0.43,-0.18 0.62,0.62 0 0 0 0.15,-0.22 0.64,0.64 0 0 0 0,-0.41 0.55,0.55 0 0 0 -0.22,-0.3 0.53,0.53 0 0 0 -0.3,-0.12 c -0.13,0 -0.25,0 -0.37,0 a 1.54,1.54 0 0 1 -0.37,-0.09 1.63,1.63 0 0 1 -0.47,-0.32 1.46,1.46 0 0 1 -0.41,-0.82 1.51,1.51 0 0 1 0.14,-0.91 1.4,1.4 0 0 1 0.69,-0.67 1.33,1.33 0 0 1 0.37,-0.12 1.52,1.52 0 0 1 1,0.18 1,1 0 0 1 0.22,0.14 c 0.11,0.09 0.18,0.21 0.29,0.3 a 0.58,0.58 0 0 0 0.36,0.12 0.63,0.63 0 0 0 0.62,-0.54 0.61,0.61 0 0 0 -0.12,-0.45 l -0.06,-0.07 a 1.25,1.25 0 0 1 -0.3,-0.54 1.46,1.46 0 0 1 0.36,-1.49 1.5,1.5 0 0 1 2.11,0 0.88,0.88 0 0 1 0.12,0.15 1.31,1.31 0 0 1 0.21,0.36 1.77,1.77 0 0 0 0.18,0.45 0.6,0.6 0 0 0 0.38,0.24 0.7,0.7 0 0 0 0.45,-0.1 l 0.64,-0.4 c 0.3,-0.2 0.59,-0.42 0.87,-0.65 a 12.73,12.73 0 0 0 1.66,-1.54 23.61,23.61 0 0 0 3.83,-6.93 61.55,61.55 0 0 0 4,-16.76 l 0.09,-1.13 c 0.08,-1.4 0.15,-2.81 0.15,-4.21 v -0.07 a 59.79,59.79 0 0 0 -3.9,-21.3 c -0.46,-1.23 -1,-2.43 -1.51,-3.62 -0.09,-0.2 -0.19,-0.39 -0.28,-0.6 a 0.86,0.86 0 0 0 -0.23,-0.33 0.63,0.63 0 0 0 -0.37,-0.12 0.78,0.78 0 0 0 -0.21,0 1.45,1.45 0 0 1 -0.22,0.09 0.86,0.86 0 0 1 -0.28,0 h -0.25 a 1,1 0 0 1 -0.45,-0.2 1,1 0 0 1 -0.38,-0.78 0.93,0.93 0 0 1 0.22,-0.61 0.83,0.83 0 0 1 0.26,-0.23 l 0.17,-0.08 a 1,1 0 0 1 0.16,-0.06 0.58,0.58 0 0 0 0.26,-0.23 0.63,0.63 0 0 0 0,-0.65 0.6,0.6 0 0 0 -0.34,-0.27 0.41,0.41 0 0 0 -0.16,0 2.44,2.44 0 0 1 -0.27,0 1.07,1.07 0 0 1 -0.25,0 1.56,1.56 0 0 1 -0.47,-0.17 l -0.13,-0.1 a 1.45,1.45 0 0 1 -0.49,-0.66 1.5,1.5 0 0 1 0.21,-1.41 1.17,1.17 0 0 1 0.26,-0.28 1.51,1.51 0 0 1 0.92,-0.32 1.54,1.54 0 0 1 1,0.34 c 0.08,0.08 0.17,0.18 0.26,0.26 a 0.63,0.63 0 0 0 0.35,0.11 0.58,0.58 0 0 0 0.26,-0.06 h 0.08 a 0.63,0.63 0 0 0 0.13,-0.11 0.6,0.6 0 0 0 0.15,-0.4 0.56,0.56 0 0 0 -0.05,-0.23 0.53,0.53 0 0 0 -0.13,-0.2 l -0.13,-0.17 a 0.78,0.78 0 0 1 -0.11,-0.2 1.34,1.34 0 0 1 -0.07,-0.18 1.5,1.5 0 0 1 -0.07,-0.44 1.43,1.43 0 0 1 0.26,-0.83 1.5,1.5 0 0 1 1.23,-0.65 1.51,1.51 0 0 1 1.49,1.48 2.46,2.46 0 0 1 0,0.28 0.51,0.51 0 0 0 0,0.13 0.62,0.62 0 0 0 1.08,0.4 0.6,0.6 0 0 0 0.15,-0.4 v -0.08 a 1.67,1.67 0 0 1 0.11,-0.59 1.64,1.64 0 0 1 0.58,-0.67 1.56,1.56 0 0 1 0.37,-0.17 1.42,1.42 0 0 1 0.42,-0.06 1.39,1.39 0 0 1 0.61,0.13 1.33,1.33 0 0 1 0.5,0.38 1.5,1.5 0 0 1 0.36,0.71 1.67,1.67 0 0 1 0,0.67 c -0.06,0.21 -0.21,0.4 -0.2,0.61 a 0.77,0.77 0 0 0 0.08,0.27 c 0.15,0.28 0.42,0.31 0.7,0.39 l 0.41,0.12 c 0.34,0.1 0.68,0.22 1,0.34 0.32,0.12 1,0.33 1.48,0.52 a 38.2,38.2 0 0 1 6.46,3.23 c 0.45,0.28 0.88,0.57 1.31,0.87 q 1.11,0.75 2.16,1.59 c 0.89,0.72 1.76,1.47 2.59,2.27 2.25,2.16 4.12,4.68 6.32,6.9 a 60.59,60.59 0 0 0 7.06,6.13 l 1.53,1.09 a 2.71,2.71 0 0 0 0.35,0.24 59.61,59.61 0 0 0 17.33,8.14 54.21,54.21 0 0 0 11.84,2.13 q 2.32,0.18 4.65,0.18 a 59.93,59.93 0 0 0 17.82,-2.69 l 1.25,-0.41 c 1.15,-0.36 2.33,-0.66 3.53,-0.91 1,-0.2 2,-0.36 3,-0.49 l 0.77,-0.08 a 35.31,35.31 0 0 1 3.87,-0.2 36.89,36.89 0 0 1 7.92,0.85 l 0.74,0.16 a 0.64,0.64 0 0 0 0.58,-0.16 0.67,0.67 0 0 0 0.18,-0.44 1.29,1.29 0 0 1 0.17,-0.6 1.31,1.31 0 0 1 0.26,-0.37 1.5,1.5 0 0 1 2.11,0 1.44,1.44 0 0 1 0.41,0.8 0.91,0.91 0 0 1 0,0.23 c 0,0.1 0,0.2 0,0.3 a 0.8,0.8 0 0 1 -0.09,0.26 c -0.06,0.14 -0.15,0.28 -0.22,0.42 a 0.64,0.64 0 0 0 -0.06,0.18 0.57,0.57 0 0 0 0.07,0.36 0.45,0.45 0 0 0 0.11,0.17 0.6,0.6 0 0 0 0.69,0.12 l 0.15,-0.09 0.11,-0.13 0.14,-0.16 a 1.33,1.33 0 0 1 0.33,-0.24 1.47,1.47 0 0 1 1.77,0.24 1.49,1.49 0 0 1 0.34,1.57 1.25,1.25 0 0 1 -0.34,0.54 1.45,1.45 0 0 1 -0.51,0.33 l -0.25,0.08 h -0.13 -0.19 a 0.51,0.51 0 0 0 -0.37,0.17 0.57,0.57 0 0 0 -0.18,0.4 0.61,0.61 0 0 0 0.18,0.47 0.64,0.64 0 0 0 0.22,0.14 0.37,0.37 0 0 0 0.14,0 h 0.23 0.17 a 1.19,1.19 0 0 1 0.32,0.1 1.37,1.37 0 0 1 0.45,0.3 1.5,1.5 0 0 1 0.38,1.36 z"
     class="cls-16"
     style="fill:url(#linear-gradient-19)" />
  <path
     id="path3350"
     d="M -279.6783,26.6737 Z"
     class="cls-17"
     style="fill:url(#linearGradient3441)" />
  <path
     id="path3352"
     d="M -279.6783,26.6737 Z"
     class="cls-17"
     style="fill:url(#linearGradient3443)" />
  <path
     id="path3354"
     d="M -279.6783,26.6737 Z"
     class="cls-17"
     style="fill:url(#linearGradient3445)" />
  <path
     id="path3356"
     d="M -279.6783,26.6737 Z"
     class="cls-17"
     style="fill:url(#linearGradient3447)" />
  <path
     id="path3358"
     d="M -279.6783,26.6737 Z"
     class="cls-17"
     style="fill:url(#linearGradient3449)" />
  <path
     id="path3360"
     d="M -279.6783,26.6737 Z"
     class="cls-17"
     style="fill:url(#linear-gradient-20)" />
</g>
</svg>
