<?xml version="1.0" encoding="UTF-8" standalone="no"?>
<svg
   xmlns:dc="http://purl.org/dc/elements/1.1/"
   xmlns:cc="http://creativecommons.org/ns#"
   xmlns:rdf="http://www.w3.org/1999/02/22-rdf-syntax-ns#"
   xmlns:svg="http://www.w3.org/2000/svg"
   xmlns="http://www.w3.org/2000/svg"
   height="16"
   width="16"
   id="svg2001"
   version="1.1"
   viewBox="0 0 16 16"
   enable-background="new 0 0 88 135.9">
  <metadata
     id="metadata2007">
    <rdf:RDF>
      <cc:Work
         rdf:about="">
        <dc:format>image/svg+xml</dc:format>
        <dc:type
           rdf:resource="http://purl.org/dc/dcmitype/StillImage" />
        <dc:title></dc:title>
      </cc:Work>
    </rdf:RDF>
  </metadata>
  <defs
     id="defs2005" />
  <circle
     r="8"
     cy="8"
     cx="8"
     id="path1537"
     style="opacity:1;fill:#2a3069;fill-opacity:1;stroke:none;stroke-width:0.19548889;stroke-linecap:round;stroke-linejoin:round;stroke-miterlimit:4;stroke-dasharray:none;stroke-opacity:1;paint-order:stroke fill markers" />
  <g
     style="fill:#ffffff"
     transform="matrix(0.0901218,0,0,0.0901218,4.0416817,5.1102163)"
     id="g2554">
    <path
       d="m 57.8,5.9000061 c 0,-19.5000001 -9.4,-36.3000001 -16.6,-41.8000001 0,0 -0.5,-0.3 -0.5,0.5 -0.6,37.7000001 -19.7,48 -30.3,61.7 -24.3,31.8 -1.7,66.6 21.3,73 12.9,3.600004 -3,-6.4 -5,-27.4 -2.4,-25.5 31.1,-44.9 31.1,-65.9999999"
       id="path1997"
       style="fill:#ffffff" />
    <path
       d="m 70.4,18.800006 c -0.1,-0.1 -0.3,-0.1 -0.5,0 0,0 0,0 -0.1,0.1 -0.4,4.7 -5.6,14.9 -12.1,24.2 -22.1,31.6 -9.5,46.8 -2.4,55 4.1,4.800004 0,0 10.3,-4.9 0.8,-0.4 20,-10.6 22.1,-33.7 2.1,-22.5 -12.2,-36.6 -17.3,-40.7"
       id="path1999"
       style="fill:#ffffff" />
  </g>
</svg>
