<?xml version="1.0" encoding="UTF-8" standalone="no"?>
<svg
   xmlns:dc="http://purl.org/dc/elements/1.1/"
   xmlns:cc="http://creativecommons.org/ns#"
   xmlns:rdf="http://www.w3.org/1999/02/22-rdf-syntax-ns#"
   xmlns:svg="http://www.w3.org/2000/svg"
   xmlns="http://www.w3.org/2000/svg"
   xmlns:xlink="http://www.w3.org/1999/xlink"
   xmlns:sodipodi="http://sodipodi.sourceforge.net/DTD/sodipodi-0.dtd"
   xmlns:inkscape="http://www.inkscape.org/namespaces/inkscape"
   viewBox="0 0 492.73 492.73"
   version="1.1"
   id="svg1003"
   sodipodi:docname="Glide.svg"
   inkscape:version="0.92.3 (2405546, 2018-03-11)">
  <metadata
     id="metadata1007">
    <rdf:RDF>
      <cc:Work
         rdf:about="">
        <dc:format>image/svg+xml</dc:format>
        <dc:type
           rdf:resource="http://purl.org/dc/dcmitype/StillImage" />
        <dc:title></dc:title>
      </cc:Work>
    </rdf:RDF>
  </metadata>
  <sodipodi:namedview
     pagecolor="#ffffff"
     bordercolor="#666666"
     borderopacity="1"
     objecttolerance="10"
     gridtolerance="10"
     guidetolerance="10"
     inkscape:pageopacity="0"
     inkscape:pageshadow="2"
     inkscape:window-width="1853"
     inkscape:window-height="1025"
     id="namedview1005"
     showgrid="false"
     inkscape:zoom="0.4282264"
     inkscape:cx="75.984567"
     inkscape:cy="-297.2949"
     inkscape:window-x="67"
     inkscape:window-y="27"
     inkscape:window-maximized="1"
     inkscape:current-layer="svg1003" />
  <defs
     id="defs945">
    <style
       id="style931">.cls-1{fill:#0e1730;}.cls-2{fill:url(#linear-gradient);}.cls-3{opacity:0.3;}.cls-4{fill:url(#linear-gradient-2);}.cls-5{fill:url(#linear-gradient-3);}.cls-6{fill:url(#linear-gradient-4);}.cls-7{fill:url(#linear-gradient-5);}.cls-8{fill:#ff1d25;}.cls-9{fill:url(#linear-gradient-6);}.cls-10{fill:url(#linear-gradient-7);}.cls-11{fill:url(#linear-gradient-8);}</style>
    <linearGradient
       id="linear-gradient"
       x1="5126.21"
       y1="-7178.97"
       x2="5126.72"
       y2="-7178.97"
       gradientTransform="matrix(83.96, 0, 0, -88.1, -430035.42, -632293.51)"
       gradientUnits="userSpaceOnUse">
      <stop
         offset="0"
         stop-color="#f2ad6c"
         id="stop933" />
      <stop
         offset="1"
         stop-color="#fff"
         id="stop935" />
    </linearGradient>
    <linearGradient
       id="linear-gradient-2"
       x1="403.04"
       y1="194.29"
       x2="408.79"
       y2="194.29"
       xlink:href="#linear-gradient" />
    <linearGradient
       id="linear-gradient-3"
       x1="290.44"
       y1="183.67"
       x2="298.25"
       y2="183.67"
       xlink:href="#linear-gradient" />
    <linearGradient
       id="linear-gradient-4"
       x1="389.13"
       y1="180.11"
       x2="403.53"
       y2="180.11"
       xlink:href="#linear-gradient" />
    <linearGradient
       id="linear-gradient-5"
       x1="198.15"
       y1="158.1"
       x2="406.01"
       y2="158.1"
       xlink:href="#linear-gradient" />
    <linearGradient
       id="linear-gradient-6"
       x1="297.52"
       y1="169.36"
       x2="316.69"
       y2="169.36"
       xlink:href="#linear-gradient" />
    <linearGradient
       id="linear-gradient-7"
       x1="83.94"
       y1="332.52"
       x2="400.07"
       y2="332.52"
       xlink:href="#linear-gradient" />
    <linearGradient
       id="linear-gradient-8"
       x1="205.63"
       y1="332.74"
       x2="205.74"
       y2="332.74"
       xlink:href="#linear-gradient" />
    <linearGradient
       inkscape:collect="always"
       xlink:href="#linear-gradient"
       id="linearGradient1009"
       gradientUnits="userSpaceOnUse"
       gradientTransform="matrix(83.96,0,0,-88.1,-430035.42,-632293.51)"
       x1="5126.21"
       y1="-7178.97"
       x2="5126.72"
       y2="-7178.97" />
    <linearGradient
       inkscape:collect="always"
       xlink:href="#linear-gradient"
       id="linearGradient1011"
       x1="205.63"
       y1="332.74"
       x2="205.74"
       y2="332.74" />
    <linearGradient
       inkscape:collect="always"
       xlink:href="#linear-gradient"
       id="linearGradient1013"
       x1="205.63"
       y1="332.74"
       x2="205.74"
       y2="332.74" />
    <linearGradient
       inkscape:collect="always"
       xlink:href="#linear-gradient"
       id="linearGradient1015"
       x1="205.63"
       y1="332.74"
       x2="205.74"
       y2="332.74" />
    <linearGradient
       inkscape:collect="always"
       xlink:href="#linear-gradient"
       id="linearGradient1017"
       x1="205.63"
       y1="332.74"
       x2="205.74"
       y2="332.74" />
    <linearGradient
       inkscape:collect="always"
       xlink:href="#linear-gradient"
       id="linearGradient1019"
       x1="205.63"
       y1="332.74"
       x2="205.74"
       y2="332.74" />
    <linearGradient
       id="linear-gradient-2-7"
       x1="403.04001"
       y1="194.28999"
       x2="408.79001"
       y2="194.28999"
       xlink:href="#linear-gradient" />
    <linearGradient
       id="linear-gradient-3-5"
       x1="290.44"
       y1="183.67"
       x2="298.25"
       y2="183.67"
       xlink:href="#linear-gradient" />
    <linearGradient
       id="linear-gradient-4-3"
       x1="389.13"
       y1="180.11"
       x2="403.53"
       y2="180.11"
       xlink:href="#linear-gradient" />
    <linearGradient
       id="linear-gradient-5-5"
       x1="198.14999"
       y1="158.10001"
       x2="406.01001"
       y2="158.10001"
       xlink:href="#linear-gradient" />
    <linearGradient
       id="linear-gradient-6-6"
       x1="297.51999"
       y1="169.36"
       x2="316.69"
       y2="169.36"
       xlink:href="#linear-gradient" />
    <linearGradient
       id="linear-gradient-7-2"
       x1="83.940002"
       y1="332.51999"
       x2="400.07001"
       y2="332.51999"
       xlink:href="#linear-gradient" />
  </defs>
  <g
     id="g1224"
     inkscape:export-filename="/home/ryan/Documents/glide/glidetoken.png"
     inkscape:export-xdpi="100"
     inkscape:export-ydpi="100">
    <circle
       style="fill:#0e1730"
       id="circle947"
       r="246.36"
       cy="246.37689"
       cx="246.35646"
       class="cls-1" />
    <g
       transform="matrix(0.95018165,0,0,0.95018165,12.273073,12.274084)"
       id="g1136">
      <g
         id="Group_9"
         data-name="Group 9">
        <path
           id="Path_12"
           data-name="Path 12"
           class="cls-2"
           d="m 357.21,80.28 a 0.73,0.73 0 0 0 -0.14,-0.18 c 0.07,0.11 0.13,0.23 0.19,0.33 a 0.66,0.66 0 0 1 -0.05,-0.15 z m 27.1,120.43 v 0 c 0,0 0,0 0,0.05 a 0.44,0.44 0 0 0 0,-0.15 0.12,0.12 0 0 1 0,0.1 z m 0.77,2.7 a 3.81,3.81 0 0 0 0.13,0.45 c -0.05,-0.18 -0.1,-0.32 -0.13,-0.45 z M 402,230.29 c 0,0 0,0 0,0 a 4.72,4.72 0 0 0 0.24,-0.56 c -0.05,0.2 -0.13,0.38 -0.24,0.56 z m -27.44,28.55 a 58.85,58.85 0 0 0 6.23,-3.55 c -2.01,1.27 -4.08,2.45 -6.21,3.55 z"
           style="fill:url(#linearGradient1009)"
           inkscape:connector-curvature="0" />
      </g>
      <g
         class="cls-3"
         id="g953"
         style="opacity:0.3">
        <path
           d="m 384.31,200.71 v 0 c 0,0 0,0 0,0.05 a 0.44,0.44 0 0 0 0,-0.15 0.12,0.12 0 0 1 0,0.1 z"
           id="path951"
           inkscape:connector-curvature="0" />
      </g>
      <g
         class="cls-3"
         id="g957"
         style="opacity:0.3">
        <path
           d="m 290.88,187.13 a 0.1,0.1 0 0 0 0,0.07 z m 0,0 a 0.1,0.1 0 0 0 0,0.07 z m 0,0 a 0.1,0.1 0 0 0 0,0.07 z m 27.92,-27.71 c -0.06,-0.19 -0.13,-0.38 -0.2,-0.56 v 0 c 0.08,0.19 0.16,0.37 0.22,0.55 0.06,0.18 0.07,0.15 0.09,0.22 a 1.55,1.55 0 0 0 -0.11,-0.21 z m -27.92,27.71 a 0.1,0.1 0 0 0 0,0.07 z m 0,0 a 0.1,0.1 0 0 0 0,0.07 z m 0,0 a 0.1,0.1 0 0 0 0,0.07 z"
           id="path955"
           inkscape:connector-curvature="0" />
      </g>
      <path
         d="m 402.27,229.74 a 4.72,4.72 0 0 1 -0.24,0.56 c 0,0 0,0 0,0 0.08,-0.19 0.16,-0.37 0.24,-0.56 z"
         id="path959"
         inkscape:connector-curvature="0" />
      <path
         d="m 385.08,203.41 a 3.81,3.81 0 0 0 0.13,0.45 c -0.05,-0.18 -0.1,-0.32 -0.13,-0.45 z m -0.77,-2.7 v 0 c 0,0 0,0 0,0.05 a 0.44,0.44 0 0 0 0,-0.15 0.12,0.12 0 0 1 0,0.1 z"
         id="path961"
         inkscape:connector-curvature="0" />
      <path
         d="M 246.55,331.66 H 246.5 Z"
         id="path963"
         inkscape:connector-curvature="0" />
      <path
         d="m 384.35,200.62 a 0.44,0.44 0 0 1 0,0.15 c 0,0 0,0 0,-0.05 v 0 a 0.12,0.12 0 0 0 0,-0.1 z"
         id="path965"
         inkscape:connector-curvature="0" />
      <path
         d="m 357.26,80.43 c -0.06,-0.1 -0.12,-0.22 -0.19,-0.33 a 0.73,0.73 0 0 1 0.14,0.18 0.66,0.66 0 0 0 0.05,0.15 z"
         id="path967"
         inkscape:connector-curvature="0" />
      <path
         d="m 290.88,187.13 a 0.1,0.1 0 0 0 0,0.07 z"
         id="path969"
         inkscape:connector-curvature="0" />
      <path
         d="m 385.08,203.41 a 3.81,3.81 0 0 0 0.13,0.45 c -0.05,-0.18 -0.1,-0.32 -0.13,-0.45 z"
         id="path971"
         inkscape:connector-curvature="0" />
      <path
         d="m 403.67,190.12 a 2.15,2.15 0 0 1 0.11,-0.36 c -0.04,0.15 -0.07,0.24 -0.11,0.36 z"
         id="path973"
         inkscape:connector-curvature="0" />
      <path
         class="cls-4"
         d="m 408.79,194.28 a 12.83,12.83 0 0 1 -0.1,1.65 c 0,0.21 -0.05,0.42 -0.09,0.62 a 5.43,5.43 0 0 1 -1.08,3 2.32,2.32 0 0 1 -1.47,0.66 2.29,2.29 0 0 1 -1.75,-0.66 4.34,4.34 0 0 1 -0.93,-2.3 15.93,15.93 0 0 1 -0.33,-3 c 0,-0.52 0,-1 0.08,-1.54 0,-0.22 0.06,-0.42 0.1,-0.64 a 7.61,7.61 0 0 1 0.76,-2.7 2.28,2.28 0 0 1 3,-0.82 2.31,2.31 0 0 1 0.95,0.91 7.88,7.88 0 0 1 0.67,2.28 13.25,13.25 0 0 1 0.19,2.54 z"
         id="path975"
         style="fill:url(#linear-gradient-2)"
         inkscape:connector-curvature="0" />
      <path
         class="cls-5"
         d="m 298.25,183.66 a 13.61,13.61 0 0 1 -0.19,2.29 8.36,8.36 0 0 1 -0.59,2.19 3.2,3.2 0 0 1 -0.67,0.92 2.64,2.64 0 0 1 -0.41,0.34 3.44,3.44 0 0 1 -1,0.52 3.5,3.5 0 0 1 -3.07,-0.53 4,4 0 0 1 -1.42,-2.29 14.28,14.28 0 0 1 -0.43,-3.44 c 0,-2 0.15,-4.45 1.89,-5.72 a 3.39,3.39 0 0 1 2,-0.67 3.48,3.48 0 0 1 2.06,0.68 3.72,3.72 0 0 1 1.41,2.24 12.48,12.48 0 0 1 0.29,1.48 c 0.06,0.36 0.09,0.71 0.12,1.06 0.03,0.35 0.01,0.62 0.01,0.93 z"
         id="path977"
         style="fill:url(#linear-gradient-3)"
         inkscape:connector-curvature="0" />
      <path
         class="cls-6"
         d="M 403.53,180.14 A 22.06,22.06 0 0 1 400,192.05 c -0.82,1.27 -1.94,2.54 -3.43,2.72 a 3.8,3.8 0 0 1 -3,-1.09 7.12,7.12 0 0 1 -1.79,-2.64 c -0.33,-0.88 -0.77,-1.69 -1.11,-2.56 a 22.63,22.63 0 0 1 -0.89,-2.79 23.59,23.59 0 0 1 -0.68,-5.8 22.66,22.66 0 0 1 3,-11.17 8,8 0 0 1 2.13,-2.56 3.53,3.53 0 0 1 3.17,-0.58 4.83,4.83 0 0 1 2.13,1.95 22.27,22.27 0 0 1 3.95,12.2 c 0.05,0.14 0.05,0.27 0.05,0.41 z"
         id="path979"
         style="fill:url(#linear-gradient-4)"
         inkscape:connector-curvature="0" />
      <path
         class="cls-7"
         d="m 405.88,219.36 a 21.34,21.34 0 0 1 -14.09,-5.27 20.86,20.86 0 0 1 -3.62,-4.05 6,6 0 0 1 -0.4,-0.58 35.42,35.42 0 0 1 -4.16,-11.92 57,57 0 0 1 1.39,-27.26 c 0.08,-0.27 0.17,-0.53 0.25,-0.8 v -0.11 a 21.65,21.65 0 0 1 15,-14.44 c 0.16,0 0.32,-0.09 0.48,-0.12 l 0.58,-0.14 -0.24,-0.53 c -1,-2.1 -2,-4.15 -3.18,-6.16 a 5.54,5.54 0 0 0 -0.3,-0.53 13.78,13.78 0 0 1 -1.46,-2.66 c -0.32,-1 -0.49,-2.13 -0.83,-3.15 a 0.7,0.7 0 0 0 0,-0.12 c -0.21,-0.83 -0.44,-1.71 -0.57,-2.57 -0.4,-2.7 -0.88,-5.39 -1.42,-8 a 149.75,149.75 0 0 0 -44.59,-79.3 c -1.49,-1.38 -3,-2.74 -4.54,-4.05 l -0.49,-0.44 c -0.05,0.22 -0.08,0.44 -0.11,0.67 -0.53,3.52 -1,7 -1.35,10.59 -0.35,3.59 -0.51,7.18 -0.57,10.78 0,0.9 0,1.79 0,2.69 a 150.4,150.4 0 0 0 3.69,33.1 92.75,92.75 0 0 0 -62.42,2.11 c -0.43,-0.48 -0.86,-0.94 -1.32,-1.41 a 3.3,3.3 0 0 0 -0.41,-0.44 142.54,142.54 0 0 0 -22.63,-19.71 149.81,149.81 0 0 0 -26,-14.75 147.8,147.8 0 0 0 -24.81,-8.46 h -0.05 q -2.81,-0.69 -5.65,-1.27 l -0.56,-0.1 c 0,0.18 -0.08,0.36 -0.11,0.55 -1,4.52 -1.72,9.12 -2.25,13.82 a 149.44,149.44 0 0 0 23.91,99.87 154.62,154.62 0 0 0 19.09,23.31 91.87,91.87 0 0 0 10.3,25.18 93.21,93.21 0 0 0 45.9,39.09 90.92,90.92 0 0 0 32.21,6.37 94.29,94.29 0 0 0 32.87,-5.4 c 9.11,-3.28 18,-7.83 25.12,-14.45 a 62.24,62.24 0 0 0 15.74,-24.59 c 0.45,-1.24 0.9,-2.5 1.27,-3.77 0.09,-0.31 0.19,-0.63 0.28,-0.95 0.09,-0.32 0.12,-0.37 0.17,-0.57 z M 254,127.84 v 0 a 58,58 0 0 0 -9,17.32 0.31,0.31 0 0 1 0,0.08 c -0.54,1.47 -1,3 -1.48,4.5 -0.6,2 -1.14,4 -1.6,6 a 91.14,91.14 0 0 0 -2,13.3 c -0.34,-0.5 -0.66,-1 -1,-1.53 v 0 c -0.16,-0.23 -0.3,-0.47 -0.44,-0.71 q -3.1,-5 -5.79,-10.24 c -0.12,-0.22 -0.23,-0.44 -0.34,-0.66 a 150.1,150.1 0 0 1 -7.57,-17.66 c -0.08,-0.21 -0.14,-0.41 -0.21,-0.62 a 148.33,148.33 0 0 1 -8.28,-49 c 0,-0.72 0,-1.44 0,-2.16 A 149,149 0 0 1 259,111.92 v 0 c 0,0 0,0 0.05,0 1.21,1 2.41,2.07 3.59,3.15 0.13,0.12 0.28,0.24 0.42,0.39 0.49,0.43 1,0.88 1.46,1.34 l 0.15,0.13 -0.79,0.62 c -1.14,0.91 -2.25,1.86 -3.31,2.86 l -0.49,0.44 c -0.22,0.22 -0.44,0.42 -0.65,0.64 a 56.87,56.87 0 0 0 -5.43,6.35 z m 67.15,60.09 a 53.89,53.89 0 0 1 -1.89,7.61 c -0.09,0.31 -0.19,0.61 -0.31,0.92 a 21.43,21.43 0 0 1 -7.74,10.16 c -0.17,0.13 -0.35,0.25 -0.53,0.37 a 21.32,21.32 0 0 1 -7.4,3.16 l -0.83,0.16 a 20.9,20.9 0 0 1 -3.74,0.33 21.64,21.64 0 0 1 -5.94,-0.84 l -0.57,-0.16 a 21.66,21.66 0 0 1 -9.62,-6.28 c -3.36,-3.82 -4.93,-8.66 -5.95,-13.56 -1.9,-9.2 -1.93,-19.66 1.23,-28.61 a 24,24 0 0 1 7.7,-11.19 l 0.47,-0.36 a 21.71,21.71 0 0 1 12.63,-4.1 c 10.39,0 18.06,7.25 21,16.79 0.41,1.33 0.75,2.69 1,4.06 a 56.82,56.82 0 0 1 1.34,11.72 56,56 0 0 1 -0.89,9.82 z m 36.6,38.72 c 0,0 0,0 0,0 a 4.89,4.89 0 0 1 -2.9,3.54 4.71,4.71 0 0 1 -1.92,0.39 4.9,4.9 0 0 1 -3.92,-1.94 4.83,4.83 0 0 1 -1,-3 4.93,4.93 0 1 1 9.85,0 5,5 0 0 1 -0.15,1.01 z m 21.38,-102.26 a 90.45,90.45 0 0 0 -9.82,-7.73 q -2.81,-1.93 -5.78,-3.64 c 0,-0.42 -0.07,-0.83 -0.1,-1.23 -0.4,-4.64 -1,-9.24 -1.83,-13.76 l -0.12,-0.66 q -0.82,-4.52 -1.95,-8.92 c 0,-0.22 -0.1,-0.44 -0.16,-0.65 -0.62,-2.47 -1.31,-4.91 -2.06,-7.34 -0.06,-0.1 -0.12,-0.22 -0.19,-0.33 a 0.73,0.73 0 0 1 0.14,0.18 q 3.26,4.32 6.18,8.88 l 0.49,0.77 q 3.5,5.49 6.49,11.29 c 0.15,0.28 0.29,0.57 0.43,0.85 a 146.52,146.52 0 0 1 9.56,23.49 c -0.41,-0.43 -0.88,-0.82 -1.32,-1.2 z"
         id="path981"
         style="fill:url(#linear-gradient-5)"
         inkscape:connector-curvature="0" />
      <path
         class="cls-8"
         d="m 403.67,190.12 a 2.15,2.15 0 0 1 0.11,-0.36 c -0.04,0.15 -0.07,0.24 -0.11,0.36 z m 0,0 a 2.15,2.15 0 0 1 0.11,-0.36 c -0.04,0.15 -0.07,0.24 -0.11,0.36 z m 0,0 a 2.15,2.15 0 0 1 0.11,-0.36 c -0.04,0.15 -0.07,0.24 -0.11,0.36 z m 0,0 a 2.15,2.15 0 0 1 0.11,-0.36 c -0.04,0.15 -0.07,0.24 -0.11,0.36 z m 0,0 a 2.15,2.15 0 0 1 0.11,-0.36 c -0.04,0.15 -0.07,0.24 -0.11,0.36 z m 0,0 a 2.15,2.15 0 0 1 0.11,-0.36 c -0.04,0.15 -0.07,0.24 -0.11,0.36 z m 0,0 a 2.15,2.15 0 0 1 0.11,-0.36 c -0.04,0.15 -0.07,0.24 -0.11,0.36 z m 0,0 a 2.15,2.15 0 0 1 0.11,-0.36 c -0.04,0.15 -0.07,0.24 -0.11,0.36 z m 0,0 a 2.15,2.15 0 0 1 0.11,-0.36 c -0.04,0.15 -0.07,0.24 -0.11,0.36 z m 0,0 a 2.15,2.15 0 0 1 0.11,-0.36 c -0.04,0.15 -0.07,0.24 -0.11,0.36 z m 0,0 a 2.15,2.15 0 0 1 0.11,-0.36 c -0.04,0.15 -0.07,0.24 -0.11,0.36 z m 0,0 a 2.15,2.15 0 0 1 0.11,-0.36 c -0.04,0.15 -0.07,0.24 -0.11,0.36 z m 0,0 a 2.15,2.15 0 0 1 0.11,-0.36 c -0.04,0.15 -0.07,0.24 -0.11,0.36 z m 0,0 a 2.15,2.15 0 0 1 0.11,-0.36 c -0.04,0.15 -0.07,0.24 -0.11,0.36 z m 0,0 a 2.15,2.15 0 0 1 0.11,-0.36 c -0.04,0.15 -0.07,0.24 -0.11,0.36 z m 0,0 a 2.15,2.15 0 0 1 0.11,-0.36 c -0.04,0.15 -0.07,0.24 -0.11,0.36 z m 0,0 a 2.15,2.15 0 0 1 0.11,-0.36 c -0.04,0.15 -0.07,0.24 -0.11,0.36 z m 0,0 a 2.15,2.15 0 0 1 0.11,-0.36 c -0.04,0.15 -0.07,0.24 -0.11,0.36 z m 0,0 a 2.15,2.15 0 0 1 0.11,-0.36 c -0.04,0.15 -0.07,0.24 -0.11,0.36 z m 0,0 a 2.15,2.15 0 0 1 0.11,-0.36 c -0.04,0.15 -0.07,0.24 -0.11,0.36 z m 0,0 a 2.15,2.15 0 0 1 0.11,-0.36 c -0.04,0.15 -0.07,0.24 -0.11,0.36 z m -29.09,68.72 a 58.85,58.85 0 0 0 6.23,-3.55 c -2.03,1.27 -4.1,2.45 -6.23,3.55 z M 402,230.29 c 0,0 0,0 0,0 a 4.72,4.72 0 0 0 0.24,-0.56 c -0.05,0.2 -0.13,0.38 -0.24,0.56 z m 1.65,-40.17 a 2.15,2.15 0 0 1 0.11,-0.36 c -0.02,0.15 -0.05,0.24 -0.09,0.36 z m 0,0 a 2.15,2.15 0 0 1 0.11,-0.36 c -0.02,0.15 -0.05,0.24 -0.09,0.36 z m 0,0 a 2.15,2.15 0 0 1 0.11,-0.36 c -0.02,0.15 -0.05,0.24 -0.09,0.36 z m 0,0 a 2.15,2.15 0 0 1 0.11,-0.36 c -0.02,0.15 -0.05,0.24 -0.09,0.36 z m 0,0 a 2.15,2.15 0 0 1 0.11,-0.36 c -0.02,0.15 -0.05,0.24 -0.09,0.36 z m 0,0 a 2.15,2.15 0 0 1 0.11,-0.36 c -0.02,0.15 -0.05,0.24 -0.09,0.36 z m 0,0 a 2.15,2.15 0 0 1 0.11,-0.36 c -0.02,0.15 -0.05,0.24 -0.09,0.36 z m 0,0 a 2.15,2.15 0 0 1 0.11,-0.36 c -0.02,0.15 -0.05,0.24 -0.09,0.36 z m 0,0 a 2.15,2.15 0 0 1 0.11,-0.36 c -0.02,0.15 -0.05,0.24 -0.09,0.36 z m 0,0 a 2.15,2.15 0 0 1 0.11,-0.36 c -0.02,0.15 -0.05,0.24 -0.09,0.36 z m 0,0 a 2.15,2.15 0 0 1 0.11,-0.36 c -0.02,0.15 -0.05,0.24 -0.09,0.36 z M 318.6,158.86 v 0 c 0.08,0.19 0.16,0.37 0.22,0.55 -0.08,-0.18 -0.15,-0.41 -0.22,-0.55 z m 85.07,31.26 a 2.15,2.15 0 0 1 0.11,-0.36 c -0.04,0.15 -0.07,0.24 -0.11,0.36 z m 0,0 a 2.15,2.15 0 0 1 0.11,-0.36 c -0.04,0.15 -0.07,0.24 -0.11,0.36 z m 0,0 a 2.15,2.15 0 0 1 0.11,-0.36 c -0.04,0.15 -0.07,0.24 -0.11,0.36 z m 0,0 a 2.15,2.15 0 0 1 0.11,-0.36 c -0.04,0.15 -0.07,0.24 -0.11,0.36 z m 0,0 a 2.15,2.15 0 0 1 0.11,-0.36 c -0.04,0.15 -0.07,0.24 -0.11,0.36 z m 0,0 a 2.15,2.15 0 0 1 0.11,-0.36 c -0.04,0.15 -0.07,0.24 -0.11,0.36 z m 0,0 a 2.15,2.15 0 0 1 0.11,-0.36 c -0.04,0.15 -0.07,0.24 -0.11,0.36 z m 0,0 a 2.15,2.15 0 0 1 0.11,-0.36 c -0.04,0.15 -0.07,0.24 -0.11,0.36 z m 0,0 a 2.15,2.15 0 0 1 0.11,-0.36 c -0.04,0.15 -0.07,0.24 -0.11,0.36 z m 0,0 a 2.15,2.15 0 0 1 0.11,-0.36 c -0.04,0.15 -0.07,0.24 -0.11,0.36 z"
         id="path983"
         inkscape:connector-curvature="0"
         style="fill:#ff1d25" />
      <path
         class="cls-9"
         d="m 316.69,169.37 a 21.57,21.57 0 0 1 -1.71,8.4 c -1,2.44 -2.4,5.26 -4.57,6.87 a 5.34,5.34 0 0 1 -1.55,0.81 5.25,5.25 0 0 1 -3.52,0 c -2.35,-0.89 -3.81,-3.09 -5,-5.22 a 22.92,22.92 0 0 1 -2.69,-8.14 5.87,5.87 0 0 1 -0.07,-0.62 20.66,20.66 0 0 1 -0.1,-2.1 16.37,16.37 0 0 1 0.08,-1.72 c 0,-0.2 0,-0.38 0,-0.56 a 22,22 0 0 1 3.13,-9.31 c 1.35,-2.31 3.73,-4.86 6.63,-4.81 3.16,0.06 5.28,3.18 6.57,5.69 a 23.82,23.82 0 0 1 2.69,9.53 v 0.07 c 0.09,0.37 0.11,0.74 0.11,1.11 z"
         id="path985"
         style="fill:url(#linear-gradient-6)"
         inkscape:connector-curvature="0" />
      <path
         class="cls-10"
         d="m 400,280.41 a 2.26,2.26 0 0 1 -3.28,1.69 1.54,1.54 0 0 1 -0.45,-0.3 1.45,1.45 0 0 1 -0.22,-0.21 c -0.07,-0.07 -0.11,-0.15 -0.18,-0.21 a 1,1 0 0 0 -0.8,-0.26 1,1 0 0 0 -0.37,0.14 1,1 0 0 0 -0.42,0.58 c 0,0 0,0.05 0,0.08 v 0 a 0.9,0.9 0 0 0 0,0.43 1.43,1.43 0 0 1 0.12,0.21 1.65,1.65 0 0 1 0.08,0.79 1.45,1.45 0 0 1 -0.41,0.86 1.56,1.56 0 0 1 -1.73,0.3 1.62,1.62 0 0 1 -0.81,-1 v -0.11 a 1,1 0 0 0 -0.7,-0.63 1.86,1.86 0 0 0 -0.74,0.09 l -0.84,0.22 c -1.11,0.3 -2.19,0.61 -3.28,0.94 l -0.76,0.23 a 90.54,90.54 0 0 0 -14.92,6.2 92.56,92.56 0 0 0 -40.14,41 c -0.37,0.74 -0.72,1.48 -1.07,2.22 -1.93,4.19 -3.74,8.42 -3.74,13.11 a 21.17,21.17 0 0 0 1.15,6.93 c 0.06,0.19 0.14,0.4 0.21,0.59 0.07,0.19 0.08,0.17 0.11,0.26 a 1.67,1.67 0 0 0 0.22,0.49 0.88,0.88 0 0 0 0.36,0.3 0.8,0.8 0 0 0 0.31,0.09 h 0.08 a 0.93,0.93 0 0 0 0.58,-0.2 1,1 0 0 1 0.19,-0.16 l 0.21,-0.13 a 1.81,1.81 0 0 1 0.49,-0.18 1.91,1.91 0 0 1 0.59,-0.08 2.28,2.28 0 0 1 2.28,2.27 2.31,2.31 0 0 1 -1,1.9 1.87,1.87 0 0 1 -0.87,0.34 0.91,0.91 0 0 0 -0.68,0.38 1,1 0 0 0 -0.19,0.39 1,1 0 0 0 0.36,0.93 0.64,0.64 0 0 0 0.27,0.14 0.94,0.94 0 0 0 0.29,0.06 2.54,2.54 0 0 0 0.29,0 h 0.29 a 2.84,2.84 0 0 1 0.57,0.1 2.65,2.65 0 0 1 0.78,0.41 2.3,2.3 0 0 1 0.56,0.69 2.17,2.17 0 0 1 0.27,0.86 2.38,2.38 0 0 1 0,0.65 2.34,2.34 0 0 1 -0.26,0.71 0.86,0.86 0 0 1 -0.15,0.22 2.27,2.27 0 0 1 -1.82,0.92 1.75,1.75 0 0 1 -0.46,0 1.21,1.21 0 0 1 -0.31,-0.09 2.57,2.57 0 0 1 -0.53,-0.25 1.7,1.7 0 0 1 -0.31,-0.29 1,1 0 0 0 -0.85,-0.24 1.08,1.08 0 0 0 -0.43,0.21 0.83,0.83 0 0 0 -0.23,0.27 1.46,1.46 0 0 0 -0.07,0.19 1,1 0 0 0 0.18,0.86 l 0.17,0.16 0.17,0.22 a 2.74,2.74 0 0 1 0.27,0.51 2.34,2.34 0 0 1 0.13,0.79 2.28,2.28 0 0 1 -2.27,2.29 2.3,2.3 0 0 1 -0.9,-0.19 2.09,2.09 0 0 1 -0.73,-0.51 2.26,2.26 0 0 1 -0.49,-0.75 2.24,2.24 0 0 1 -0.17,-0.84 1,1 0 0 1 0,-0.18 1.49,1.49 0 0 0 0,-0.21 1,1 0 0 0 -1.13,-0.93 1,1 0 0 0 -0.27,0.11 1,1 0 0 0 -0.34,0.3 1.19,1.19 0 0 0 -0.11,0.26 2.22,2.22 0 0 1 -0.14,0.63 1,1 0 0 1 -0.25,0.41 1.52,1.52 0 0 1 -0.35,0.32 1.35,1.35 0 0 1 -0.47,0.18 1.44,1.44 0 0 1 -0.77,0 1.52,1.52 0 0 1 -1.08,-1.45 c 0,-0.19 0.06,-0.36 0.05,-0.56 a 1,1 0 0 0 -0.16,-0.41 1,1 0 0 0 -0.6,-0.4 c -0.36,-0.09 -0.72,-0.18 -1.07,-0.3 -0.5,-0.15 -1,-0.31 -1.48,-0.5 a 22.25,22.25 0 0 1 -11,-9.17 c -0.21,-0.34 -0.41,-0.7 -0.59,-1.05 -0.18,-0.35 -0.38,-0.72 -0.56,-1.09 -0.08,-0.19 -0.18,-0.37 -0.26,-0.57 l -0.21,-0.56 a 1.6,1.6 0 0 1 -0.1,-0.23 1.05,1.05 0 0 1 -0.08,-0.18 21.56,21.56 0 0 0 -19.75,-13 c -4.57,0 -8.71,1.68 -12.81,3.53 a 91.68,91.68 0 0 0 -28.18,19.79 92.8,92.8 0 0 0 -17.77,25.74 103.37,103.37 0 0 0 -4.66,12.59 c -3.41,11 -9.07,20.82 -17.83,28.44 a 57,57 0 0 1 -6.85,5.12 c -0.34,0.22 -0.69,0.42 -1,0.64 l -1,0.6 a 59.41,59.41 0 0 1 -9,4.22 c -0.93,0.35 -1.87,0.67 -2.83,1 l -1.19,0.38 a 98,98 0 0 1 -23.24,4 82.78,82.78 0 0 1 -15.89,-0.66 88.87,88.87 0 0 1 -21.12,-5.3 58.28,58.28 0 0 1 -11,-5.84 c -0.52,-0.36 -1,-0.72 -1.55,-1.1 a 63.52,63.52 0 0 1 -6.84,-5.86 59.43,59.43 0 0 1 -6.63,-8 c -0.19,-0.26 -0.37,-0.52 -0.54,-0.79 a 57,57 0 0 1 -8.81,-22.31 c -0.06,-0.39 -0.13,-0.78 -0.19,-1.17 -0.11,-0.67 -0.21,-1.36 -0.26,-2.05 a 33.32,33.32 0 0 1 -0.17,-3.47 36.5,36.5 0 0 1 0.49,-5.93 35.62,35.62 0 0 1 13.46,-22.29 l 0.52,-0.39 a 32.19,32.19 0 0 1 2.72,-1.82 c 0.2,-0.13 0.41,-0.26 0.61,-0.37 a 35.17,35.17 0 0 1 8.05,-3.41 c 0.75,-0.21 1.48,-0.4 2.23,-0.56 a 16.58,16.58 0 0 1 2.31,-0.37 c 0.73,-0.07 1.45,-0.11 2.18,-0.11 a 21.12,21.12 0 0 1 2.86,0.18 l 0.52,0.07 a 25.16,25.16 0 0 1 2.47,0.52 l 1.2,0.37 1.16,0.43 0.86,0.37 a 22.25,22.25 0 0 1 10,9.07 c 0.11,0.18 0.22,0.37 0.32,0.57 0.27,0.51 0.54,1 0.78,1.56 0.24,0.56 0.45,1.09 0.65,1.65 0.2,0.56 0.37,1.13 0.52,1.71 0.15,0.58 0.29,1.17 0.39,1.76 0.05,0.26 0.09,0.52 0.13,0.8 0.04,0.28 0,0.49 0.08,0.74 a 21.72,21.72 0 0 1 0.12,2.3 c 0,0.36 0,0.74 0,1.11 -0.3,9.77 7.16,18.7 16.5,20.93 a 21.94,21.94 0 0 0 20.57,-6.08 c 2.05,-2.05 3.41,-4.61 5.06,-7 a 154.42,154.42 0 0 1 23.87,-26.73 148.62,148.62 0 0 1 14.58,-11.42 168.25,168.25 0 0 1 17.7,-10.47 c 1,-0.48 1.95,-1 2.93,-1.42 0.51,-0.26 1,-0.5 1.54,-0.72 0.54,-0.22 0.73,-0.35 1.1,-0.51 l 0.44,-0.2 0.53,-0.23 1.55,-0.69 c 0.52,-0.2 1,-0.42 1.56,-0.66 a 22.32,22.32 0 0 0 -3.65,-1 21.58,21.58 0 0 0 -14,2.19 23.66,23.66 0 0 1 -11.51,3.22 22.19,22.19 0 0 1 -6.29,-0.91 l -0.84,-0.27 a 1.67,1.67 0 0 0 -0.73,-0.14 0.88,0.88 0 0 0 -0.51,0.27 1.63,1.63 0 0 0 -0.24,0.38 1.41,1.41 0 0 1 -0.29,0.4 1.12,1.12 0 0 1 -0.29,0.21 1.57,1.57 0 0 1 -1.25,0.14 1.42,1.42 0 0 1 -0.6,-0.36 1.41,1.41 0 0 1 -0.44,-0.88 1.5,1.5 0 0 1 0.14,-0.84 c 0,0 0.06,-0.11 0.1,-0.21 a 0.91,0.91 0 0 0 -0.08,-0.8 1,1 0 0 0 -0.33,-0.32 v 0 a 1.06,1.06 0 0 0 -0.76,-0.12 0.8,0.8 0 0 0 -0.35,0.19 c -0.13,0.07 -0.17,0.2 -0.25,0.32 a 2,2 0 0 1 -0.2,0.21 1.92,1.92 0 0 1 -0.47,0.35 2.26,2.26 0 0 1 -2.75,-0.35 2.29,2.29 0 0 1 0,-3.23 2.4,2.4 0 0 1 0.78,-0.51 2.35,2.35 0 0 1 0.69,-0.14 1,1 0 0 0 0.67,-0.27 1,1 0 0 0 0.22,-1 0.9,0.9 0 0 0 -0.34,-0.47 0.73,0.73 0 0 0 -0.46,-0.18 c -0.19,0 -0.38,0 -0.57,0 a 2.33,2.33 0 0 1 -0.56,-0.15 2.25,2.25 0 0 1 -1.36,-1.74 2.61,2.61 0 0 1 0.22,-1.4 2.25,2.25 0 0 1 1.06,-1 2.38,2.38 0 0 1 2.11,0.1 l 0.33,0.21 c 0.17,0.14 0.27,0.33 0.44,0.46 a 0.88,0.88 0 0 0 0.56,0.19 1,1 0 0 0 0.94,-0.83 0.91,0.91 0 0 0 -0.17,-0.68 l -0.09,-0.11 a 1.87,1.87 0 0 1 -0.47,-0.83 2.27,2.27 0 0 1 3.78,-2.29 1.37,1.37 0 0 1 0.19,0.23 2.08,2.08 0 0 1 0.32,0.56 2.94,2.94 0 0 0 0.28,0.69 0.9,0.9 0 0 0 0.58,0.36 1,1 0 0 0 0.68,-0.15 l 1,-0.61 c 0.45,-0.31 0.9,-0.64 1.33,-1 a 18.87,18.87 0 0 0 2.54,-2.35 36.43,36.43 0 0 0 5.87,-10.62 94.25,94.25 0 0 0 6.11,-25.68 c 0.06,-0.57 0.1,-1.15 0.14,-1.73 0.12,-2.15 0.24,-4.3 0.24,-6.46 v -0.1 A 91.67,91.67 0 0 0 222,240 c -0.7,-1.87 -1.48,-3.71 -2.32,-5.54 -0.13,-0.31 -0.29,-0.61 -0.43,-0.93 a 1.23,1.23 0 0 0 -0.35,-0.5 0.94,0.94 0 0 0 -0.56,-0.18 0.87,0.87 0 0 0 -0.32,0.06 3.65,3.65 0 0 1 -0.35,0.14 1.42,1.42 0 0 1 -0.42,0.06 H 217 a 1.37,1.37 0 0 1 -0.68,-0.31 1.49,1.49 0 0 1 -0.26,-2.12 1.52,1.52 0 0 1 0.4,-0.36 l 0.26,-0.13 a 1.14,1.14 0 0 0 0.26,-0.09 0.85,0.85 0 0 0 0.39,-0.34 1,1 0 0 0 0,-1 0.88,0.88 0 0 0 -0.52,-0.41 0.7,0.7 0 0 0 -0.25,-0.05 c -0.14,0 -0.27,0 -0.41,0 h -0.38 a 2.63,2.63 0 0 1 -0.72,-0.28 1.3,1.3 0 0 1 -0.2,-0.15 2.15,2.15 0 0 1 -0.76,-1 2.4,2.4 0 0 1 -0.13,-0.8 2.36,2.36 0 0 1 0.45,-1.37 2.34,2.34 0 0 1 0.41,-0.42 2.26,2.26 0 0 1 1.41,-0.49 2.31,2.31 0 0 1 1.46,0.52 5,5 0 0 0 0.41,0.39 0.93,0.93 0 0 0 0.53,0.17 0.9,0.9 0 0 0 0.4,-0.09 l 0.12,-0.07 a 1.06,1.06 0 0 0 0.2,-0.17 0.94,0.94 0 0 0 0.16,-1 1.27,1.27 0 0 0 -0.2,-0.31 1.21,1.21 0 0 1 -0.2,-0.26 1.28,1.28 0 0 1 -0.17,-0.3 1.53,1.53 0 0 1 -0.11,-0.27 2.48,2.48 0 0 1 -0.1,-0.68 2.26,2.26 0 0 1 2.28,-2.27 2.27,2.27 0 0 1 2.21,1.72 2.25,2.25 0 0 1 0,1 1.11,1.11 0 0 0 0,0.19 0.95,0.95 0 1 0 1.89,0 v -0.11 a 2.3,2.3 0 0 1 0.17,-0.91 2.35,2.35 0 0 1 0.89,-1 2.05,2.05 0 0 1 0.56,-0.26 2.27,2.27 0 0 1 0.65,-0.09 2,2 0 0 1 0.92,0.21 2,2 0 0 1 0.78,0.57 2.51,2.51 0 0 1 0.55,1.09 2.38,2.38 0 0 1 -0.06,1 c -0.08,0.32 -0.32,0.61 -0.3,0.94 a 1.16,1.16 0 0 0 0.13,0.41 c 0.23,0.42 0.64,0.47 1.06,0.59 l 0.63,0.19 c 0.53,0.16 1.05,0.33 1.58,0.51 0.75,0.25 1.49,0.51 2.27,0.81 a 56.85,56.85 0 0 1 9.9,5 c 0.69,0.42 1.35,0.86 2,1.32 1.13,0.78 2.23,1.59 3.3,2.45 1.37,1.09 2.7,2.25 4,3.47 3.46,3.31 6.32,7.17 9.68,10.57 a 91.26,91.26 0 0 0 10.83,9.39 c 0.78,0.57 1.55,1.12 2.34,1.67 a 6.58,6.58 0 0 0 0.54,0.38 91.55,91.55 0 0 0 26.55,12.47 82.84,82.84 0 0 0 18.14,3.26 q 3.56,0.27 7.13,0.27 a 91.73,91.73 0 0 0 12.8,-0.89 93.11,93.11 0 0 0 14.56,-3.26 l 1.91,-0.63 c 1.77,-0.54 3.58,-1 5.42,-1.39 q 2.24,-0.46 4.53,-0.75 l 1.18,-0.13 a 57.93,57.93 0 0 1 5.92,-0.31 56.54,56.54 0 0 1 12.15,1.31 l 1.13,0.25 a 1,1 0 0 0 0.89,-0.25 1,1 0 0 0 0.27,-0.68 1.94,1.94 0 0 1 0.25,-0.91 2.06,2.06 0 0 1 0.41,-0.57 2.28,2.28 0 0 1 3.22,0 2.2,2.2 0 0 1 0.64,1.23 1.32,1.32 0 0 1 0,0.34 3.56,3.56 0 0 1 -0.05,0.47 1.12,1.12 0 0 1 -0.13,0.39 c -0.09,0.23 -0.23,0.44 -0.34,0.66 a 0.79,0.79 0 0 0 -0.08,0.26 0.83,0.83 0 0 0 0.1,0.56 0.62,0.62 0 0 0 0.17,0.26 0.91,0.91 0 0 0 1.06,0.18 1,1 0 0 0 0.22,-0.14 c 0.07,-0.06 0.12,-0.13 0.18,-0.19 a 2.12,2.12 0 0 1 0.2,-0.24 1.89,1.89 0 0 1 0.51,-0.38 2.27,2.27 0 0 1 3.24,2.78 3.33,3.33 0 0 1 -0.25,0.5 2.69,2.69 0 0 1 -0.27,0.32 2.51,2.51 0 0 1 -0.78,0.51 1.9,1.9 0 0 1 -0.39,0.11 0.64,0.64 0 0 1 -0.2,0 h -0.29 a 0.85,0.85 0 0 0 -0.57,0.27 1,1 0 0 0 -0.28,0.61 1,1 0 0 0 0.62,0.94 0.83,0.83 0 0 0 0.21,0.06 h 0.45 0.26 a 1.78,1.78 0 0 1 0.51,0.16 2,2 0 0 1 0.68,0.46 2.27,2.27 0 0 1 0.55,1.94 z"
         id="path987"
         style="fill:url(#linear-gradient-7)"
         inkscape:connector-curvature="0" />
      <path
         class="cls-11"
         d="m 205.74,332.78 h -0.05 -0.06 v 0 c 0,0 0.07,-0.01 0.11,0 z"
         id="path989"
         style="fill:url(#linearGradient1011)"
         inkscape:connector-curvature="0" />
      <path
         class="cls-11"
         d="m 205.74,332.78 h -0.05 -0.06 v 0 c 0,0 0.07,-0.01 0.11,0 z"
         id="path991"
         style="fill:url(#linearGradient1013)"
         inkscape:connector-curvature="0" />
      <path
         class="cls-11"
         d="m 205.74,332.78 h -0.05 -0.06 v 0 c 0,0 0.07,-0.01 0.11,0 z"
         id="path993"
         style="fill:url(#linearGradient1015)"
         inkscape:connector-curvature="0" />
      <path
         class="cls-11"
         d="m 205.74,332.78 h -0.05 -0.06 v 0 c 0,0 0.07,-0.01 0.11,0 z"
         id="path995"
         style="fill:url(#linearGradient1017)"
         inkscape:connector-curvature="0" />
      <path
         class="cls-11"
         d="m 205.74,332.78 h -0.05 -0.06 v 0 c 0,0 0.07,-0.01 0.11,0 z"
         id="path997"
         style="fill:url(#linearGradient1019)"
         inkscape:connector-curvature="0" />
      <path
         class="cls-11"
         d="m 205.74,332.78 h -0.05 -0.06 v 0 c 0,0 0.07,-0.01 0.11,0 z"
         id="path999"
         style="fill:url(#linear-gradient-8)"
         inkscape:connector-curvature="0" />
    </g>
  </g>
</svg>
